<?xml version="1.0" encoding="utf-8"?>
<!-- Generator: Adobe Illustrator 25.0.0, SVG Export Plug-In . SVG Version: 6.00 Build 0)  -->
<svg version="1.1" id="Layer_1" xmlns="http://www.w3.org/2000/svg" xmlns:xlink="http://www.w3.org/1999/xlink" x="0px" y="0px"
	 viewBox="0 0 170 35" style="enable-background:new 0 0 170 35;" xml:space="preserve">
<style type="text/css">
	.st0{fill:#FFFFFF;}
	.st1{fill:#F39200;}
</style>
<path class="st0" d="M2.6,26h2.4v-2.5h0.3c0.6,0.9,1.6,2.9,4.8,2.9c4.1,0,6.9-3.3,6.9-8.5c0-5.2-2.9-8.4-7-8.4c-3.2,0-4.2,2-4.7,2.8
	H5.2V4.2H2.6V26z M5.1,17.8c0-3.7,1.6-6.1,4.7-6.1c3.2,0,4.8,2.7,4.8,6.1c0,3.5-1.6,6.3-4.8,6.3C6.8,24.1,5.1,21.5,5.1,17.8z
	 M20.9,26h2.5V15.6c0-2.2,1.7-3.8,4.1-3.8c0.7,0,1.4,0.1,1.5,0.2V9.4c-0.3,0-0.9,0-1.3,0c-2,0-3.7,1.1-4.3,2.7h-0.2V9.6h-2.4V26z
	 M32.1,26h2.5V9.6h-2.5V26z M33.4,6.9c1,0,1.8-0.8,1.8-1.7s-0.8-1.7-1.8-1.7s-1.8,0.8-1.8,1.7S32.4,6.9,33.4,6.9z M45.8,32.5
	c3.9,0,7.1-1.8,7.1-6V9.6h-2.4v2.6h-0.3c-0.6-0.9-1.6-2.8-4.8-2.8c-4.1,0-7,3.3-7,8.3c0,5.1,3,8,6.9,8c3.2,0,4.2-1.9,4.8-2.8h0.2
	v3.3c0,2.7-1.9,4-4.6,4c-3,0-4-1.6-4.7-2.5l-2,1.4C40.2,30.9,42.2,32.5,45.8,32.5z M45.7,23.5c-3.2,0-4.8-2.4-4.8-5.8
	c0-3.3,1.6-6,4.8-6c3.1,0,4.7,2.5,4.7,6C50.4,21.3,48.8,23.5,45.7,23.5z M60,16.2c0-2.9,1.8-4.5,4.3-4.5c2.4,0,3.8,1.5,3.8,4.1V26
	h2.5V15.6c0-4.2-2.2-6.2-5.6-6.2c-2.6,0-4,1.1-4.8,2.8H60v-8h-2.5V26H60V16.2z M82.3,9.6h-3.5V5.7h-2.5v3.9h-2.5v2.1h2.5V22
	c0,2.9,2.3,4.2,4.4,4.2c0.9,0,1.5-0.2,1.9-0.3l-0.5-2.3c-0.2,0-0.6,0.1-1.1,0.1c-1.1,0-2.2-0.3-2.2-2.5v-9.5h3.5V9.6z"/>
<path class="st1" d="M99.2,14.3c-0.4-3-2.8-4.9-7-4.9c-4.2,0-6.9,1.9-6.9,5.1c0,2.5,1.5,4,4.7,4.7l2.8,0.6c1.4,0.3,2.1,0.8,2.1,1.6
	c0,1-1.1,1.7-2.7,1.7c-1.6,0-2.7-0.7-3-2l-4.5,0.2c0.4,3.1,3.1,5.1,7.4,5.1c4.2,0,7.3-2.2,7.3-5.4c0-2.4-1.6-3.8-4.7-4.4l-3-0.6
	c-1.5-0.3-2.1-0.9-2.1-1.6c0-1,1.1-1.6,2.5-1.6c1.6,0,2.5,0.9,2.7,1.9L99.2,14.3z M102.5,26h4.5v-5.2l1.2-1.4l4.5,6.6h5.3l-6.4-9.3
	l6.1-7.1h-5.2l-5.2,6.2H107V4.2h-4.5V26z M119.9,26h4.5V9.6h-4.5V26z M122.2,7.5c1.4,0,2.5-1,2.5-2.3c0-1.3-1.1-2.3-2.5-2.3
	c-1.3,0-2.5,1-2.5,2.3C119.8,6.5,120.9,7.5,122.2,7.5z M132.6,4.2h-4.5V26h4.5V4.2z M140.8,4.2h-4.5V26h4.5V4.2z M158.1,14.3
	c-0.4-3-2.8-4.9-7-4.9c-4.2,0-6.9,1.9-6.9,5.1c0,2.5,1.5,4,4.7,4.7l2.8,0.6c1.4,0.3,2.1,0.8,2.1,1.6c0,1-1.1,1.7-2.7,1.7
	c-1.6,0-2.7-0.7-3-2l-4.5,0.2c0.4,3.1,3.1,5.1,7.4,5.1c4.2,0,7.3-2.2,7.3-5.4c0-2.4-1.6-3.8-4.7-4.4l-3-0.6
	c-1.5-0.3-2.1-0.9-2.1-1.6c0-1,1.1-1.6,2.5-1.6c1.6,0,2.5,0.9,2.7,1.9L158.1,14.3z"/>
<path class="st0" d="M169.1,25.6c0-0.4-0.3-0.6-0.6-0.6c-0.4,0-0.6,0.3-0.6,0.6c0,0.4,0.3,0.6,0.6,0.6
	C168.8,26.3,169.1,26,169.1,25.6z M169.1,21.3c0-1.2-0.7-2-1.7-2.1V20c0.6,0.2,1,0.7,1,1.3c0,1-0.8,1.6-2.1,1.6c-1.2,0-2-0.7-2-1.6
	c0-0.7,0.5-1.2,1-1.3v-0.8c-1,0.1-1.7,1-1.7,2.2c0,1.5,1.2,2.5,2.8,2.5C167.9,23.7,169.1,22.8,169.1,21.3z M169.1,15.7
	c0-1.5-1.1-2.5-2.8-2.5c-1.7,0-2.8,1-2.8,2.5c0,1.5,1.1,2.5,2.8,2.5C168,18.1,169.1,17.2,169.1,15.7z M168.4,15.7
	c0,1.1-1,1.6-2.1,1.6c-1.1,0-2.1-0.5-2.1-1.6s1-1.6,2.1-1.6C167.4,14,168.4,14.6,168.4,15.7z M169,11.9v-0.8h-3.4
	c-0.8,0-1.4-0.6-1.4-1.2c0-0.6,0.4-1.1,1-1.1h3.7V7.9h-3.6c-0.7,0-1.2-0.4-1.2-1.2c0-0.6,0.3-1.1,1.1-1.1h3.7V4.8h-3.7
	c-1.3,0-1.9,0.7-1.9,1.7c0,0.8,0.4,1.4,0.9,1.6v0.1c-0.6,0.3-0.9,0.7-0.9,1.5c0,0.7,0.3,1.2,0.9,1.5v0.1h-0.9v0.8H169z"/>
<path class="st0" d="M126.5,35l-4.5-6h9L126.5,35z"/>
</svg>
