<svg width="65" height="65" viewBox="0 0 65 65" fill="none" xmlns="http://www.w3.org/2000/svg">
<circle cx="32.5" cy="32.5" r="32.5" transform="rotate(-180 32.5 32.5)" fill="url(#paint0_linear)"/>
<path d="M41.6738 15V24.3352H51.009L41.6738 15Z" fill="url(#paint1_linear)"/>
<path d="M27.6379 48.5571L25.8502 41.3853C26.9658 40.3234 27.6706 38.8298 27.6706 37.1704C27.6706 33.9545 25.0521 31.3359 21.8361 31.3359C18.6201 31.3359 16.0016 33.9545 16.0016 37.1704C16.0016 38.8298 16.7064 40.3234 17.822 41.3853L16.0343 48.5571C15.9246 48.9982 16.0833 49.4649 16.438 49.752C16.7928 50.0367 17.2829 50.0857 17.6889 49.885L21.8361 47.8102L25.9809 49.885C26.1466 49.9643 26.3263 50.0064 26.5037 50.0064C26.7628 50.0064 27.0218 49.92 27.2342 49.752C27.5889 49.4649 27.7476 49.0005 27.6379 48.5571ZM21.8361 40.6711C19.906 40.6711 18.3354 39.1005 18.3354 37.1704C18.3354 35.2404 19.906 33.6697 21.8361 33.6697C23.7662 33.6697 25.3368 35.2404 25.3368 37.1704C25.3368 39.1005 23.7662 40.6711 21.8361 40.6711Z" fill="url(#paint2_linear)"/>
<path d="M41.6743 26.669C40.3884 26.669 39.3405 25.6211 39.3405 24.3352V15H25.3377C24.0518 15 23.0039 16.0479 23.0039 17.3338V29.1218C26.9527 29.6936 30.0053 33.066 30.0053 37.1711C30.0053 38.9355 29.4452 40.6112 28.409 42.0044L29.8233 47.6732H48.6757C49.964 47.6732 51.0095 46.6277 51.0095 45.3394V26.669H41.6743ZM28.8384 24.3352C28.1943 24.3352 27.6715 23.8124 27.6715 23.1683C27.6715 22.5242 28.1943 22.0014 28.8384 22.0014H35.8398C36.484 22.0014 37.0067 22.5242 37.0067 23.1683C37.0067 23.8124 36.484 24.3352 35.8398 24.3352H28.8384ZM45.175 38.338H33.506C32.8619 38.338 32.3391 37.8153 32.3391 37.1711C32.3391 36.527 32.8619 36.0042 33.506 36.0042H45.175C45.8192 36.0042 46.3419 36.527 46.3419 37.1711C46.3419 37.8153 45.8192 38.338 45.175 38.338ZM45.175 31.3366H31.1722C30.5281 31.3366 30.0053 30.8138 30.0053 30.1697C30.0053 29.5256 30.5281 29.0028 31.1722 29.0028H45.175C45.8192 29.0028 46.3419 29.5256 46.3419 30.1697C46.3419 30.8138 45.8192 31.3366 45.175 31.3366Z" fill="url(#paint3_linear)"/>
<defs>
<linearGradient id="paint0_linear" x1="32.5" y1="-3.8147e-06" x2="32.5" y2="65" gradientUnits="userSpaceOnUse">
<stop stop-color="#AAECFF"/>
<stop offset="1" stop-color="#BCDAFF" stop-opacity="0"/>
</linearGradient>
<linearGradient id="paint1_linear" x1="46.3414" y1="15" x2="46.3414" y2="24.3352" gradientUnits="userSpaceOnUse">
<stop stop-color="#00C6FF"/>
<stop offset="1" stop-color="#00C6FF" stop-opacity="0.7"/>
</linearGradient>
<linearGradient id="paint2_linear" x1="21.8361" y1="31.3359" x2="21.8361" y2="50.0069" gradientUnits="userSpaceOnUse">
<stop stop-color="#00C6FF"/>
<stop offset="1" stop-color="#00C6FF" stop-opacity="0.7"/>
</linearGradient>
<linearGradient id="paint3_linear" x1="37.0067" y1="15" x2="37.0067" y2="47.6732" gradientUnits="userSpaceOnUse">
<stop stop-color="#00C6FF"/>
<stop offset="1" stop-color="#00C6FF" stop-opacity="0.7"/>
</linearGradient>
</defs>
</svg>
