<svg width="65" height="65" viewBox="0 0 65 65" fill="none" xmlns="http://www.w3.org/2000/svg">
<circle cx="32.5" cy="32.5" r="32.5" transform="rotate(-180 32.5 32.5)" fill="url(#paint0_linear)"/>
<path d="M41.6059 36.9711C40.2594 38.8204 38.0783 40.0249 35.6208 40.0249H32.1726C30.9815 40.0249 29.9671 39.2686 29.583 38.2102C29.1089 38.0688 28.6439 37.8852 28.1902 37.6597C27.2294 37.1823 26.357 36.5356 25.589 35.7344C20.6073 36.8288 16.8789 41.2677 16.8789 46.5781V47.2722C16.8789 48.2263 17.6524 48.9999 18.6066 48.9999H45.4123C46.3664 48.9999 47.14 48.2263 47.14 47.2722V46.5781C47.1399 42.4757 44.9148 38.8934 41.6059 36.9711Z" fill="url(#paint1_linear)"/>
<path d="M23.7524 32.1734C24.495 32.1734 25.1413 31.7618 25.4762 31.1545C25.485 31.1785 25.4939 31.2024 25.5029 31.2263C25.5056 31.2335 25.5083 31.2407 25.5109 31.2478C26.2964 33.3155 27.8249 35.0488 29.8403 35.8062C30.3278 35.0317 31.1897 34.5166 32.1725 34.5166H35.6206C35.9646 34.5166 36.2847 34.4195 36.5653 34.2626C37.0367 33.9991 37.4605 33.3305 37.6794 32.9761C38.0296 32.409 38.301 31.8084 38.5416 31.1535C38.6768 31.399 38.8627 31.6126 39.0855 31.78V32.6255C39.0855 34.5361 37.5312 36.0905 35.6206 36.0905H32.1724C31.5205 36.0905 30.9921 36.619 30.9921 37.2708C30.9921 37.9228 31.5205 38.4512 32.1724 38.4512H35.6206C38.8329 38.4512 41.4462 35.8378 41.4462 32.6255V31.78C41.9241 31.4211 42.2332 30.8497 42.2332 30.2062V26.647V25.2821C42.2332 24.6253 41.911 24.0442 41.4164 23.6868C41.0328 18.8326 36.9603 15 32.0092 15C27.058 15 22.9855 18.8326 22.6019 23.6868C22.1073 24.0441 21.7852 24.6253 21.7852 25.2821V30.206C21.7852 31.2956 22.6703 32.1734 23.7524 32.1734ZM32.0092 17.3608C35.6743 17.3608 38.6974 20.1617 39.0508 23.7356C38.8188 23.9181 38.6288 24.1513 38.4979 24.4189C37.3841 21.513 34.8978 19.4899 32.0091 19.4899C29.0581 19.4899 26.6117 21.5826 25.5247 24.4073C25.5232 24.4111 25.5218 24.415 25.5203 24.419C25.3894 24.1513 25.1994 23.9181 24.9674 23.7357C25.321 20.1617 28.344 17.3608 32.0092 17.3608Z" fill="url(#paint2_linear)"/>
<defs>
<linearGradient id="paint0_linear" x1="3.8147e-06" y1="-3.8147e-06" x2="77.3554" y2="48.9615" gradientUnits="userSpaceOnUse">
<stop stop-color="#F4F5FF"/>
<stop offset="1" stop-color="#BBBDDD"/>
</linearGradient>
<linearGradient id="paint1_linear" x1="16.8789" y1="35.7344" x2="33.2306" y2="59.344" gradientUnits="userSpaceOnUse">
<stop stop-color="#8F94FB"/>
<stop offset="1" stop-color="#4E54C8"/>
</linearGradient>
<linearGradient id="paint2_linear" x1="21.7852" y1="15" x2="47.9114" y2="29.4188" gradientUnits="userSpaceOnUse">
<stop stop-color="#8F94FB"/>
<stop offset="1" stop-color="#4E54C8"/>
</linearGradient>
</defs>
</svg>
